REM DIRINDEX 1\2\3,1\2\4,1\2\5,1\2\6
REM DIRNAME folder01,folder02,folder03,folder04,folder05,folder06
TITLE ""
FILE "184 184.mp3" MP3
  TRACK 01 AUDIO
    TITLE "0:"
    INDEX 01 00:00:00
  TRACK 02 AUDIO
    TITLE "3:cjc157_6654"
    INDEX 01 00:00:09
  TRACK 03 AUDIO
    TITLE "0:"
    INDEX 01 00:01:36
  TRACK 04 AUDIO
    TITLE "4:cjc157_6655"
    INDEX 01 00:02:08
  TRACK 05 AUDIO
    TITLE "0:"
    INDEX 01 00:03:37
  TRACK 06 AUDIO
    TITLE "5:cjc157_6656"
    INDEX 01 00:04:09
  TRACK 07 AUDIO
    TITLE "0:"
    INDEX 01 00:07:41
  TRACK 08 AUDIO
    TITLE "5:cjc157_6657"
    INDEX 01 00:08:07
  TRACK 09 AUDIO
    TITLE "0:"
    INDEX 01 00:12:20
  TRACK 10 AUDIO
    TITLE "3:cjc157_6658"
    INDEX 01 00:12:65
  TRACK 11 AUDIO
    TITLE "0:"
    INDEX 01 00:14:31
  TRACK 12 AUDIO
    TITLE "4:cjc157_6659"
    INDEX 01 00:15:03
  TRACK 13 AUDIO
    TITLE "0:"
    INDEX 01 00:16:38
  TRACK 14 AUDIO
    TITLE "5:cjc157_6660"
    INDEX 01 00:17:06
  TRACK 15 AUDIO
    TITLE "0:"
    INDEX 01 00:21:45
  TRACK 16 AUDIO
    TITLE "3:cjc157_6661"
    INDEX 01 00:22:15
  TRACK 17 AUDIO
    TITLE "0:"
    INDEX 01 00:23:34
  TRACK 18 AUDIO
    TITLE "4:cjc157_6662"
    INDEX 01 00:24:02
  TRACK 19 AUDIO
    TITLE "0:"
    INDEX 01 00:25:21
  TRACK 20 AUDIO
    TITLE "5:cjc157_6663"
    INDEX 01 00:25:66
  TRACK 21 AUDIO
    TITLE "0:"
    INDEX 01 00:31:59
  TRACK 22 AUDIO
    TITLE "3:cjc157_6664"
    INDEX 01 00:32:33
  TRACK 23 AUDIO
    TITLE "0:"
    INDEX 01 00:33:73
  TRACK 24 AUDIO
    TITLE "4:cjc157_6665"
    INDEX 01 00:34:42
  TRACK 25 AUDIO
    TITLE "0:"
    INDEX 01 00:35:72
  TRACK 26 AUDIO
    TITLE "5:cjc157_6666"
    INDEX 01 00:36:44
  TRACK 27 AUDIO
    TITLE "0:"
    INDEX 01 00:40:19
  TRACK 28 AUDIO
    TITLE "3:cjc157_6667"
    INDEX 01 00:40:64
  TRACK 29 AUDIO
    TITLE "0:"
    INDEX 01 00:41:71
  TRACK 30 AUDIO
    TITLE "4:cjc157_6668"
    INDEX 01 00:42:41
  TRACK 31 AUDIO
    TITLE "0:"
    INDEX 01 00:43:62
  TRACK 32 AUDIO
    TITLE "5:cjc157_6669"
    INDEX 01 00:44:36
  TRACK 33 AUDIO
    TITLE "0:"
    INDEX 01 00:47:70
  TRACK 34 AUDIO
    TITLE "5:cjc157_6670"
    INDEX 01 00:48:42
  TRACK 35 AUDIO
    TITLE "0:"
    INDEX 01 00:51:58
  TRACK 36 AUDIO
    TITLE "3:cjc157_6671"
    INDEX 01 00:52:36
  TRACK 37 AUDIO
    TITLE "0:"
    INDEX 01 00:54:29
  TRACK 38 AUDIO
    TITLE "4:cjc157_6672"
    INDEX 01 00:54:74
  TRACK 39 AUDIO
    TITLE "0:"
    INDEX 01 00:57:03
  TRACK 40 AUDIO
    TITLE "5:cjc157_6673"
    INDEX 01 00:57:48
  TRACK 41 AUDIO
    TITLE "0:"
    INDEX 01 01:00:72
  TRACK 42 AUDIO
    TITLE "3:cjc157_6674"
    INDEX 01 01:01:40
  TRACK 43 AUDIO
    TITLE "0:"
    INDEX 01 01:03:29
  TRACK 44 AUDIO
    TITLE "4:cjc157_6675"
    INDEX 01 01:04:00
  TRACK 45 AUDIO
    TITLE "0:"
    INDEX 01 01:05:69
  TRACK 46 AUDIO
    TITLE "5:cjc157_6676"
    INDEX 01 01:06:42
  TRACK 47 AUDIO
    TITLE "0:"
    INDEX 01 01:09:44
  TRACK 48 AUDIO
    TITLE "3:cjc157_6677"
    INDEX 01 01:10:14
  TRACK 49 AUDIO
    TITLE "0:"
    INDEX 01 01:12:56
  TRACK 50 AUDIO
    TITLE "4:cjc157_6678"
    INDEX 01 01:13:26
  TRACK 51 AUDIO
    TITLE "0:"
    INDEX 01 01:15:33
  TRACK 52 AUDIO
    TITLE "5:cjc157_6679"
    INDEX 01 01:16:01
  TRACK 53 AUDIO
    TITLE "0:"
    INDEX 01 01:20:02
  TRACK 54 AUDIO
    TITLE "3:cjc157_6680"
    INDEX 01 01:20:63
  TRACK 55 AUDIO
    TITLE "0:"
    INDEX 01 01:22:48
  TRACK 56 AUDIO
    TITLE "5:cjc157_6681"
    INDEX 01 01:23:18
  TRACK 57 AUDIO
    TITLE "0:"
    INDEX 01 01:25:68
  TRACK 58 AUDIO
    TITLE "4:cjc157_6682"
    INDEX 01 01:26:40
  TRACK 59 AUDIO
    TITLE "0:"
    INDEX 01 01:28:43
  TRACK 60 AUDIO
    TITLE "5:cjc157_6683"
    INDEX 01 01:29:13
  TRACK 61 AUDIO
    TITLE "0:"
    INDEX 01 01:32:70
  TRACK 62 AUDIO
    TITLE "3:cjc157_6684"
    INDEX 01 01:33:42
  TRACK 63 AUDIO
    TITLE "0:"
    INDEX 01 01:35:29
  TRACK 64 AUDIO
    TITLE "4:cjc157_6685"
    INDEX 01 01:36:01
  TRACK 65 AUDIO
    TITLE "0:"
    INDEX 01 01:41:63
  TRACK 66 AUDIO
    TITLE "5:cjc157_6686"
    INDEX 01 01:42:33
  TRACK 67 AUDIO
    TITLE "0:"
    INDEX 01 01:46:74
